<svg width="35" height="35" viewBox="0 0 35 35" fill="none" xmlns="http://www.w3.org/2000/svg">
<path d="M12.6155 34.4225C11.0182 34.4225 9.6445 33.8693 8.4945 32.763C7.3445 31.6567 6.71183 30.315 6.5965 28.738C4.76317 28.4587 3.2375 27.6203 2.0195 26.223C0.8015 24.8253 0.1925 23.1868 0.1925 21.3075C0.1925 20.6512 0.277833 20.0027 0.4485 19.362C0.618833 18.7213 0.8745 18.1198 1.2155 17.5575C0.8105 16.9702 0.506667 16.335 0.304 15.652C0.101333 14.9687 0 14.2513 0 13.5C0 11.5813 0.6315 9.92217 1.8945 8.5225C3.15717 7.12283 4.72067 6.30883 6.585 6.0805C6.572 6.02917 6.5655 5.97783 6.5655 5.9265V5.7535C6.62717 4.14317 7.24317 2.78167 8.4135 1.669C9.58417 0.556334 10.9848 0 12.6155 0C13.5335 0 14.3515 0.179498 15.0695 0.538498C15.7875 0.897165 16.4695 1.40483 17.1155 2.0615C17.7538 1.40483 18.4308 0.897165 19.1465 0.538498C19.8618 0.179498 20.6848 0 21.6155 0C23.2282 0 24.616 0.554334 25.779 1.663C26.9417 2.772 27.5538 4.12533 27.6155 5.723V5.896C27.6155 5.94733 27.609 5.99867 27.596 6.05C29.4603 6.278 31.0322 7.094 32.3115 8.498C33.5912 9.90166 34.231 11.569 34.231 13.5C34.231 14.2513 34.1265 14.9687 33.9175 15.652C33.7085 16.335 33.4013 16.9702 32.996 17.5575C33.337 18.1192 33.596 18.7203 33.773 19.361C33.95 20.002 34.0385 20.6508 34.0385 21.3075C34.0385 23.2202 33.4243 24.8702 32.196 26.2575C30.968 27.6445 29.4308 28.4713 27.5845 28.738C27.4692 30.315 26.8448 31.6567 25.7115 32.763C24.5782 33.8693 23.2128 34.4225 21.6155 34.4225C20.6925 34.4225 19.8713 34.2482 19.152 33.8995C18.4327 33.5508 17.7538 33.0418 17.1155 32.3725C16.4565 33.0418 15.7693 33.5508 15.054 33.8995C14.3387 34.2482 13.5258 34.4225 12.6155 34.4225ZM18.6155 6V28.423C18.6155 29.263 18.9063 29.973 19.488 30.553C20.0697 31.133 20.7815 31.423 21.6235 31.423C22.4258 31.423 23.1135 31.1242 23.6865 30.5265C24.2598 29.9292 24.5695 29.233 24.6155 28.438C23.7745 28.2613 22.9982 27.9415 22.2865 27.4785C21.5752 27.0158 20.9605 26.4228 20.4425 25.6995C20.1862 25.3485 20.0895 24.9747 20.1525 24.578C20.2155 24.1813 20.4237 23.8592 20.777 23.6115C21.1283 23.3548 21.5047 23.2582 21.906 23.3215C22.3077 23.3845 22.6338 23.5927 22.8845 23.946C23.2982 24.5477 23.8247 25.0083 24.464 25.328C25.1033 25.6477 25.7948 25.8075 26.5385 25.8075C27.7925 25.8075 28.856 25.371 29.729 24.498C30.602 23.6247 31.0385 22.5612 31.0385 21.3075C31.0385 21.0552 31.0142 20.803 30.9655 20.551C30.9168 20.299 30.8398 20.0512 30.7345 19.8075C30.1678 20.1922 29.5428 20.487 28.8595 20.692C28.1762 20.897 27.4667 20.9995 26.731 20.9995C26.306 20.9995 25.9497 20.8558 25.662 20.5685C25.3747 20.2808 25.231 19.9243 25.231 19.499C25.231 19.074 25.3747 18.7178 25.662 18.4305C25.9497 18.1435 26.306 18 26.731 18C27.9847 18 29.0482 17.5633 29.9215 16.69C30.7945 15.817 31.231 14.7537 31.231 13.5C31.231 12.266 30.8008 11.219 29.9405 10.359C29.0802 9.499 28.036 9.04583 26.808 8.9995C26.4667 9.6125 26.0172 10.1472 25.4595 10.6035C24.9018 11.0598 24.2795 11.4213 23.5925 11.688C23.2002 11.8367 22.8172 11.8243 22.4435 11.651C22.0698 11.4777 21.8208 11.1927 21.6965 10.796C21.5682 10.4037 21.5835 10.0183 21.7425 9.64C21.9015 9.262 22.1835 9.00883 22.5885 8.8805C23.1912 8.6755 23.6797 8.31133 24.054 7.788C24.4283 7.265 24.6155 6.66567 24.6155 5.99C24.6155 5.15533 24.3253 4.44833 23.745 3.869C23.165 3.28933 22.4548 2.9995 21.6145 2.9995C20.7742 2.9995 20.0642 3.2895 19.4845 3.8695C18.9052 4.4495 18.6155 5.15967 18.6155 6ZM15.6155 28.423V6C15.6155 5.15967 15.3253 4.4495 14.745 3.8695C14.165 3.2895 13.4548 2.9995 12.6145 2.9995C11.7742 2.9995 11.0642 3.2895 10.4845 3.8695C9.90517 4.4495 9.6155 5.15967 9.6155 6C9.6155 6.64867 9.7975 7.23967 10.1615 7.773C10.5258 8.30633 11.0092 8.6755 11.6115 8.8805C12.0038 9.00883 12.291 9.25883 12.473 9.6305C12.655 10.0022 12.683 10.3857 12.557 10.781C12.406 11.176 12.1415 11.4598 11.7635 11.6325C11.3855 11.8055 10.9938 11.8177 10.5885 11.669C9.9015 11.4023 9.27917 11.044 8.7215 10.594C8.16383 10.144 7.71433 9.6125 7.373 8.9995C6.17833 9.04583 5.15083 9.5055 4.2905 10.3785C3.43017 11.2515 3 12.294 3 13.506C3 14.7557 3.4365 15.817 4.3095 16.69C5.18283 17.5633 6.24633 18 7.5 18C7.925 18 8.28133 18.1437 8.569 18.431C8.85633 18.7187 9 19.0752 9 19.5005C9 19.9255 8.85633 20.2817 8.569 20.569C8.28133 20.856 7.925 20.9995 7.5 20.9995C6.76433 20.9995 6.05483 20.897 5.3715 20.692C4.68817 20.487 4.06317 20.1922 3.4965 19.8075C3.39117 20.0512 3.31417 20.299 3.2655 20.551C3.21683 20.803 3.1925 21.0552 3.1925 21.3075C3.1925 22.5612 3.629 23.6247 4.502 24.498C5.375 25.371 6.4385 25.8075 7.6925 25.8075C8.43983 25.8075 9.13117 25.6467 9.7665 25.325C10.4018 25.003 10.9285 24.5433 11.3465 23.946C11.5972 23.5927 11.9233 23.3845 12.325 23.3215C12.7263 23.2582 13.1027 23.3515 13.454 23.6015C13.8053 23.8515 14.013 24.1758 14.077 24.5745C14.141 24.9735 14.0448 25.3485 13.7885 25.6995C13.2578 26.4228 12.6315 27.021 11.9095 27.494C11.1878 27.967 10.4065 28.292 9.5655 28.469C9.6115 29.264 9.9295 29.955 10.5195 30.542C11.1092 31.1293 11.8052 31.423 12.6075 31.423C13.4495 31.423 14.1613 31.133 14.743 30.553C15.3247 29.973 15.6155 29.263 15.6155 28.423Z" fill="#0050AD"/>
</svg>
